G04 MADE WITH FRITZING*
G04 WWW.FRITZING.ORG*
G04 DOUBLE SIDED*
G04 HOLES PLATED*
G04 CONTOUR ON CENTER OF CONTOUR VECTOR*
%ASAXBY*%
%FSLAX23Y23*%
%MOIN*%
%OFA0B0*%
%SFA1.0B1.0*%
%ADD10C,0.096614*%
%ADD11C,0.084000*%
%ADD12C,0.049370*%
%ADD13C,0.088000*%
%ADD14C,0.090000*%
%ADD15C,0.065118*%
%ADD16C,0.080000*%
%ADD17R,0.053307X0.057244*%
%ADD18R,0.069055X0.065118*%
%ADD19R,0.084803X0.072992*%
%ADD20R,0.090000X0.090000*%
%ADD21R,0.079972X0.080000*%
%LNMASK0*%
G90*
G70*
G54D10*
X3903Y4396D03*
X3903Y193D03*
X221Y193D03*
X221Y4386D03*
G54D11*
X418Y488D03*
X618Y488D03*
X418Y488D03*
X618Y488D03*
X418Y488D03*
X618Y488D03*
G54D12*
X1147Y2890D03*
X723Y2890D03*
X536Y2919D03*
X714Y2663D03*
X842Y2466D03*
X408Y3972D03*
X1639Y2506D03*
X1501Y2870D03*
X1639Y3146D03*
X1511Y3224D03*
X704Y3470D03*
G54D13*
X320Y1925D03*
X320Y1825D03*
X320Y1725D03*
X320Y1625D03*
X320Y1525D03*
X320Y1425D03*
X320Y1325D03*
X320Y1225D03*
X320Y1125D03*
X320Y1925D03*
X320Y1825D03*
X320Y1725D03*
X320Y1625D03*
X320Y1525D03*
X320Y1425D03*
X320Y1325D03*
X320Y1225D03*
X320Y1125D03*
G54D12*
X1373Y3297D03*
X960Y3299D03*
X960Y3697D03*
X555Y3296D03*
X960Y2860D03*
X3676Y3972D03*
G54D13*
X320Y2378D03*
X320Y2278D03*
X320Y2178D03*
X320Y2378D03*
X320Y2278D03*
X320Y2178D03*
G54D14*
X300Y744D03*
X300Y882D03*
X300Y744D03*
X300Y882D03*
G54D12*
X2987Y4047D03*
X822Y4051D03*
X1934Y3598D03*
X1924Y1374D03*
G54D15*
X1924Y921D03*
G54D12*
X1924Y2004D03*
X1924Y1689D03*
X1924Y2958D03*
X1924Y3283D03*
X1924Y2644D03*
X1924Y2329D03*
X3420Y4047D03*
X1255Y4051D03*
X2367Y3598D03*
X2357Y1374D03*
X2357Y1689D03*
G54D15*
X2357Y921D03*
G54D12*
X2357Y2004D03*
X2357Y2329D03*
X2357Y2958D03*
X2357Y2644D03*
X2357Y3283D03*
X1688Y4051D03*
G54D15*
X2800Y3598D03*
X2790Y921D03*
X2790Y2004D03*
X2790Y1374D03*
X2790Y1689D03*
X2790Y2329D03*
X2790Y2959D03*
X2790Y2644D03*
X2790Y3283D03*
G54D12*
X2121Y4051D03*
X3233Y3608D03*
X3223Y921D03*
X3223Y1374D03*
X3223Y1689D03*
X3223Y2004D03*
X3223Y2329D03*
X3223Y2958D03*
X3223Y3283D03*
X3223Y2644D03*
X2554Y4051D03*
X3499Y3529D03*
X3489Y1295D03*
X3489Y1610D03*
X3489Y842D03*
X3489Y1925D03*
X3489Y2880D03*
X3489Y2250D03*
X3489Y3205D03*
X3489Y2565D03*
G54D16*
X1344Y2240D03*
X1344Y2140D03*
X1344Y2040D03*
X1344Y1940D03*
X1344Y1840D03*
X1344Y1740D03*
X1344Y1640D03*
X1344Y1540D03*
X1344Y1440D03*
X1344Y1340D03*
X1344Y1240D03*
X1344Y1140D03*
X1344Y1040D03*
X1344Y940D03*
X1344Y840D03*
X743Y2240D03*
X743Y2140D03*
X743Y2040D03*
X743Y1940D03*
X743Y1840D03*
X743Y1740D03*
X743Y1640D03*
X743Y1540D03*
X743Y1440D03*
X743Y1340D03*
X743Y1240D03*
X743Y1140D03*
X743Y1040D03*
X743Y940D03*
X743Y840D03*
X1344Y2240D03*
X1344Y2140D03*
X1344Y2040D03*
X1344Y1940D03*
X1344Y1840D03*
X1344Y1740D03*
X1344Y1640D03*
X1344Y1540D03*
X1344Y1440D03*
X1344Y1340D03*
X1344Y1240D03*
X1344Y1140D03*
X1344Y1040D03*
X1344Y940D03*
X1344Y840D03*
X743Y2240D03*
X743Y2140D03*
X743Y2040D03*
X743Y1940D03*
X743Y1840D03*
X743Y1740D03*
X743Y1640D03*
X743Y1540D03*
X743Y1440D03*
X743Y1340D03*
X743Y1240D03*
X743Y1140D03*
X743Y1040D03*
X743Y940D03*
X743Y840D03*
G54D17*
X546Y842D03*
X546Y775D03*
G54D18*
X546Y1039D03*
X546Y959D03*
G54D19*
X1029Y2683D03*
X1029Y2805D03*
X1432Y3100D03*
X1432Y3222D03*
X1019Y3500D03*
X1019Y3622D03*
X1019Y3102D03*
X1019Y3224D03*
X633Y3099D03*
X633Y3221D03*
G54D20*
X300Y744D03*
X300Y744D03*
G54D21*
X1344Y2240D03*
X1344Y2240D03*
G04 End of Mask0*
M02*