; NON-PLATED HOLES START AT T1
; THROUGH (PLATED) HOLES START AT T100
M48
INCH
T1C0.086614
T100C0.038000
T101C0.040000
T102C0.015748
T103C0.036000
T104C0.031496
%
T1
X002214Y043856
X039025Y001927
X002214Y001927
X039025Y043955
T100
X003198Y023777
X003198Y014250
X003198Y011250
X003198Y019250
X003198Y016250
X003198Y022777
X003198Y013250
X003198Y018250
X003198Y015250
X003198Y021777
X003198Y012250
X003198Y017250
T101
X002995Y008817
X002995Y007439
T102
X028001Y035982
X032234Y023285
X023671Y035982
X025541Y040510
X015009Y028699
X023572Y032833
X019242Y032833
X034990Y035293
X034202Y040470
X011466Y028896
X009596Y032990
X034891Y025647
X032234Y020037
X016879Y040510
X027903Y026435
X027903Y013738
X034891Y008423
X016387Y031455
X034891Y012951
X034891Y028797
X007037Y034703
X015108Y032242
X027903Y009211
X027903Y029585
X027903Y016888
X023572Y026435
X008415Y024663
X019242Y026435
X023572Y013738
X019242Y013738
X032234Y032833
X032332Y036081
X034891Y016100
X023572Y009211
X019242Y009211
X034891Y032045
X023572Y029584
X019242Y029584
X023572Y016888
X019242Y016888
X029872Y040470
X009596Y036966
X034891Y019250
X016387Y025057
X034891Y022498
X013730Y032970
X021210Y040510
X027903Y023285
X005364Y029191
X032234Y026435
X032234Y013738
X023572Y023285
X032234Y009210
X019242Y023285
X032234Y029584
X008218Y040510
X036761Y039722
X032234Y016888
X027903Y020037
X004084Y039722
X007234Y028896
X019340Y035982
X023572Y020037
X019242Y020037
X009596Y028600
X012549Y040510
X007135Y026632
X005546Y032957
X027903Y032833
T103
X007434Y015399
X013435Y021399
X007434Y021399
X013435Y013399
X007434Y013399
X013435Y018399
X007434Y018399
X013435Y011399
X007434Y011399
X013435Y016399
X007434Y016399
X013435Y008399
X007434Y008399
X013435Y022399
X007434Y022399
X013435Y014399
X007434Y014399
X013435Y019399
X007434Y019399
X013435Y020399
X007434Y020399
X013435Y012399
X007434Y012399
X013435Y017399
X007434Y017399
X013435Y009399
X007434Y009399
X013435Y010399
X007434Y010399
X013435Y015399
T104
X006183Y004880
X004183Y004880
T00
M30
